<?xml version="1.0" encoding="UTF-8" standalone="no"?>
<!DOCTYPE svg PUBLIC "-//W3C//DTD SVG 1.1//EN" "http://www.w3.org/Graphics/SVG/1.1/DTD/svg11.dtd">
<svg width="100%" height="100%" viewBox="0 0 122 93" version="1.1" xmlns="http://www.w3.org/2000/svg" xmlns:xlink="http://www.w3.org/1999/xlink" xml:space="preserve" xmlns:serif="http://www.serif.com/" style="fill-rule:evenodd;clip-rule:evenodd;stroke-linejoin:round;stroke-miterlimit:2;">
    <g transform="matrix(1,0,0,1,-379.529,-534.376)">
        <g transform="matrix(4.16667,0,0,4.16667,167.82,229.567)">
            <path d="M57.9,74.552C54.762,74.552 52.209,77.106 52.209,80.244L52.209,84.875C52.209,88.013 54.762,90.566 57.9,90.566L58.177,90.566C58.417,90.566 58.641,90.69 58.769,90.893C58.897,91.096 58.911,91.351 58.807,91.568L58.067,93.109L63.368,90.632C63.461,90.589 63.562,90.566 63.664,90.566L72.888,90.566C76.026,90.566 78.58,88.013 78.58,84.875L78.58,80.244C78.58,77.106 76.026,74.552 72.888,74.552L57.9,74.552ZM56.59,95.27C56.407,95.27 56.227,95.198 56.093,95.063C55.885,94.853 55.832,94.535 55.96,94.268L57.088,91.918C53.56,91.514 50.81,88.509 50.81,84.875L50.81,80.244C50.81,76.334 53.991,73.154 57.9,73.154L72.888,73.154C76.797,73.154 79.978,76.334 79.978,80.244L79.978,84.875C79.978,88.784 76.797,91.964 72.888,91.964L63.819,91.964L56.886,95.204C56.791,95.249 56.69,95.27 56.59,95.27Z" style="fill:rgb(90,98,103);fill-rule:nonzero;"/>
        </g>
    </g>
</svg>
